HIERARCHY
ROOT Hips
{
  OFFSET 10.478 79.1653 27.3549
  CHANNELS 6 Xposition Yposition Zposition Zrotation Xrotation Yrotation
  JOINT RightUpLeg
  {
    OFFSET -8.9458 -8.66707 0.101652
    CHANNELS 3 Zrotation Xrotation Yrotation
    JOINT RightLeg
    {
      OFFSET 0 -44.4227 1.3727
      CHANNELS 3 Zrotation Xrotation Yrotation
      JOINT RightFoot
      {
        OFFSET 0.253549 -42.0924 -1.46059
        CHANNELS 3 Zrotation Xrotation Yrotation
        JOINT RightToes
        {
          OFFSET 0.04 -4.41509 8.4991
          CHANNELS 3 Zrotation Xrotation Yrotation
          End Site
          {
            OFFSET -0.08 -0.137448 9.77979
          }
        }
      }
    }
  }
  JOINT Spine
  {
    OFFSET 0 11.8905 0
    CHANNELS 3 Zrotation Xrotation Yrotation
    JOINT Spine1
    {
      OFFSET 0 25.6574 0.127663
      CHANNELS 3 Zrotation Xrotation Yrotation
      JOINT HEad
      {
        OFFSET 0 8.73416 0.011341
        CHANNELS 3 Zrotation Xrotation Yrotation
        End Site
        {
          OFFSET -0.29 12.7742 2.51395
        }
      }
      JOINT LeftShoulder1
      {
        OFFSET 8.99 -0.362252 -0.22
        CHANNELS 3 Zrotation Xrotation Yrotation
        JOINT LeftArm
        {
          OFFSET 10.2827 -0.00338 0.322123
          CHANNELS 3 Zrotation Xrotation Yrotation
          JOINT LeftForeArm
          {
            OFFSET 32.7669 0.099144 -1.42434
            CHANNELS 3 Zrotation Xrotation Yrotation
            JOINT LeftHand
            {
              OFFSET 27.5643 0.085362 1.02216
              CHANNELS 3 Zrotation Xrotation Yrotation
              End Site
              {
                OFFSET 16.7443 -0.6 1.50291
              }
            }
          }
        }
      }
      JOINT RightShoulder
      {
        OFFSET -8.99 -0.362252 -0.22
        CHANNELS 3 Zrotation Xrotation Yrotation
        JOINT RightArm
        {
          OFFSET -10.2827 -0.00338 0.322123
          CHANNELS 3 Zrotation Xrotation Yrotation
          JOINT RightForeArm
          {
            OFFSET -32.8971 0.099144 -1.42434
            CHANNELS 3 Zrotation Xrotation Yrotation
            JOINT RightHand
            {
              OFFSET -27.4921 0.085362 1.02216
              CHANNELS 3 Zrotation Xrotation Yrotation
              End Site
              {
                OFFSET -16.6312 -0.6 1.50291
              }
            }
          }
        }
      }
    }
  }
  JOINT LeftUpLeg
  {
    OFFSET 8.9458 -8.66707 0.101652
    CHANNELS 3 Zrotation Xrotation Yrotation
    JOINT LeftLeg
    {
      OFFSET 0 -44.4227 1.3727
      CHANNELS 3 Zrotation Xrotation Yrotation
      JOINT LeftFoot
      {
        OFFSET -0.253549 -42.0924 -1.46059
        CHANNELS 3 Zrotation Xrotation Yrotation
        JOINT LeftToes
        {
          OFFSET -0.04 -4.41509 8.4991
          CHANNELS 3 Zrotation Xrotation Yrotation
          End Site
          {
            OFFSET 0.08 -0.047448 9.77979
          }
        }
      }
    }
  }
}
MOTION
Frames:	21
Frame Time:	0.0166667
-15.0959 92.0037 44.8866 -0.91039 4.42329 -145.194 -22.7682 -41.0339 6.23938 20.9023 52.4453 -11.5496 15.2612 11.2466 -2.51393 0.0462048 0.000533403 0.662642 3.22587 9.5241 -4.46728 -0.39206 18.1527 -7.93674 15.0335 -9.15605 -24.8802 -1.59028e-015 0 9.54166e-015 -94.8266 -14.744 -59.9115 -52.0428 65.4442 -79.9132 7.21815 19.4659 -2.26649 26.8924 -2.93087 -12.5163 82.093 -58.6154 37.7373 -7.45992 72.0419 142.377 -30.2624 16.752 7.89895 21.531 -5.46688 -10.0297 -15.5452 41.7595 11.4877 -8.31975 29.2486 2.80562 -1.31575e-009 1.55994e-007 -4.86486e-009 
-14.0593 91.9663 44.073 -1.2621 4.40038 -144.467 -24.1811 -40.6262 6.73414 21.5697 51.7395 -14.2436 13.9409 12.1488 -2.47717 0.0462048 0.000533403 0.662642 2.94259 9.45982 -4.24261 -0.923799 18.058 -7.35065 15.1433 -8.70276 -25.5054 -1.59028e-015 0 -3.18055e-015 -94.4263 -14.145 -58.991 -51.4521 65.1566 -80.1682 7.21815 19.4659 -2.26649 26.6422 -3.02229 -12.9049 84.192 -60.0161 41.0223 -7.93954 72.0803 142.839 -29.7451 17.0937 6.7188 22.1109 -5.40658 -10.4267 -15.4448 41.5741 10.0091 -8.70656 27.683 2.74264 -1.31574e-009 1.55994e-007 -4.86485e-009 
-12.8931 91.9548 43.1435 -1.63077 4.15552 -143.64 -25.8534 -40.2054 7.37164 22.2911 50.7908 -17.5846 12.2186 12.5216 -2.30803 0.0462048 0.000533403 0.662642 2.69348 9.28542 -3.8966 -1.42316 17.7425 -6.36744 14.9581 -8.04269 -26.1929 -3.18055e-015 3.18055e-015 6.36111e-015 -94.0291 -13.9192 -57.5929 -50.9831 64.9465 -80.4178 7.21815 19.4659 -2.26649 26.2414 -3.07921 -13.1999 86.2356 -61.9872 44.1933 -9.17024 71.8662 143.3 -29.0187 17.4861 5.27785 22.5345 -5.77766 -11.2321 -15.6936 41.7854 8.75208 -8.84481 25.211 2.4163 -1.31575e-009 1.55994e-007 -4.86485e-009 
-11.5977 91.955 42.0891 -1.96462 3.70651 -142.714 -27.7426 -39.8282 8.17473 23.1929 49.7014 -21.2776 10.3869 12.1236 -2.03345 0.0462048 0.000533403 0.662642 2.49229 9.01925 -3.45498 -1.86766 17.2377 -5.06515 14.57 -7.26132 -26.9191 3.18055e-015 -6.36111e-015 -0 -93.6261 -14.0451 -55.9122 -50.6776 64.8386 -80.6405 7.21815 19.4659 -2.26649 25.7039 -3.10286 -13.4094 88.4021 -64.2883 47.3003 -11.1161 71.3203 143.679 -28.1443 17.8908 3.67719 22.7992 -6.57107 -12.3996 -16.0964 42.3575 7.84197 -8.72281 22.1626 1.87419 -1.31574e-009 1.55994e-007 -4.86484e-009 
-10.1771 91.9223 40.9198 -2.21075 3.07737 -141.678 -29.8213 -39.5726 9.10259 24.3418 48.634 -24.9966 8.84624 10.8414 -1.71942 0.0462048 0.000533403 0.662642 2.36977 8.68799 -2.94328 -2.24103 16.5883 -3.5145 14.08 -6.45479 -27.6969 -1.59028e-015 -6.36111e-015 3.18055e-015 -93.2117 -14.4392 -54.1345 -50.5709 64.8425 -80.7986 7.21815 19.4659 -2.26649 25.048 -3.10132 -13.5626 90.7156 -66.6221 50.3296 -13.5562 70.3763 143.639 -27.2228 18.2601 2.07336 22.9622 -7.84322 -13.8063 -16.5496 43.3215 7.37978 -8.47537 18.9212 1.20699 -1.31576e-009 1.55994e-007 -4.86485e-009 
-8.63593 91.7995 39.6608 -2.3306 2.30187 -140.508 -32.0681 -39.4926 10.0616 25.7166 47.7512 -28.4415 7.98092 8.77676 -1.42686 0.0462048 0.000533403 0.662642 2.35212 8.31796 -2.38953 -2.53755 15.841 -1.79076 13.5781 -5.69986 -28.5473 -4.77083e-015 0 3.18055e-015 -92.7907 -14.9994 -52.4054 -50.6829 64.9503 -80.8491 7.21815 19.4659 -2.26649 24.3003 -3.08068 -13.6783 92.9132 -68.689 53.0902 -16.1481 68.9869 142.647 -26.3824 18.5509 0.646478 23.1329 -9.67613 -15.2827 -17.0865 44.7045 7.46781 -8.28467 15.9142 0.504472 -1.31574e-009 1.55994e-007 -4.86486e-009 
-6.97856 91.5308 38.346 -2.3149 1.4286 -139.184 -34.4461 -39.5887 10.9375 27.2179 47.174 -31.3592 8.01636 6.23474 -1.16873 0.0462048 0.000533403 0.662642 2.44093 7.93271 -1.82363 -2.76435 15.0443 0.0212201 13.1318 -5.04352 -29.471 -3.53113e-031 -3.18055e-015 -6.36111e-015 -92.3749 -15.6379 -50.8297 -51.0006 65.1383 -80.7763 7.21815 19.4659 -2.26649 23.4868 -3.03622 -13.7319 94.4451 -70.2594 55.2019 -18.5376 67.1623 140.082 -25.757 18.7352 -0.443424 23.4519 -12.1322 -16.6516 -17.9013 46.4693 8.24393 -8.27703 13.6012 -0.166333 -1.31575e-009 1.55994e-007 -4.86485e-009 
-5.21062 91.0695 37.0105 -2.19144 0.523929 -137.702 -36.872 -39.8098 11.6346 28.6896 46.9779 -33.5195 8.94178 3.63244 -0.916376 0.0462048 0.000533403 0.662642 2.60885 7.55703 -1.27333 -2.93939 14.2564 1.83517 12.7818 -4.51017 -30.4394 -4.77083e-015 4.77083e-015 -0 -91.9779 -16.2913 -49.4892 -51.46 65.3689 -80.6055 7.21815 19.4659 -2.26649 22.6178 -2.94841 -13.6402 94.7896 -71.2382 56.3622 -20.4507 65.0319 135.373 -25.4412 18.8054 -1.10274 24.0522 -15.2147 -17.7577 -19.309 48.5037 9.8784 -8.46606 12.4201 -0.755511 -1.31574e-009 1.55994e-007 -4.86485e-009 
-3.34385 90.375 35.6859 -2.02481 -0.331374 -136.096 -39.1908 -40.0904 12.1032 29.9469 47.2351 -34.6909 10.5213 1.371 -0.643362 0.0462048 0.000533403 0.662642 2.81039 7.22269 -0.757856 -3.08734 13.5516 3.58396 12.54 -4.11677 -31.4073 -0 0 6.36111e-015 -91.6173 -16.9084 -48.461 -51.9511 65.5991 -80.4096 7.21815 19.4659 -2.26649 21.6704 -2.7859 -13.2693 93.9097 -71.6789 56.7462 -21.6819 62.8633 128.05 -25.4427 18.7716 -1.32807 25.0066 -18.8361 -18.4747 -21.6042 50.6667 12.4922 -8.77562 12.6913 -1.21393 -1.31575e-009 1.55994e-007 -4.86485e-009 
-1.39749 89.4036 34.393 -1.91168 -1.05891 -134.444 -41.1799 -40.4084 12.3376 30.8063 48.0816 -34.6659 12.3821 -0.290842 -0.356496 0.0462048 0.000533403 0.662642 2.97976 6.96794 -0.281891 -3.23841 13.0148 5.2416 12.3928 -3.8841 -32.3392 0 0 -3.18055e-015 -91.3198 -17.4335 -47.8214 -52.3466 65.7907 -80.2829 7.21815 19.4659 -2.26649 20.5817 -2.51489 -12.4633 92.2877 -71.7548 57.0117 -21.9751 60.9626 117.693 -25.6729 18.6504 -1.16696 26.2784 -22.8069 -18.7079 -24.8822 52.8726 16.0248 -9.13358 14.4844 -1.48886 -1.31575e-009 1.55994e-007 -4.86485e-009 
0.587343 88.1457 33.161 -1.94806 -1.60506 -132.874 -42.6177 -40.7658 12.3469 31.0746 49.5893 -33.3061 14.1158 -1.23006 -0.0911144 0.0462048 0.000533403 0.662642 3.134 6.83819 0.174534 -3.41624 12.7268 6.83293 12.3058 -3.83874 -33.2294 3.18055e-015 3.18055e-015 -0 -91.122 -17.801 -47.6301 -52.552 65.9234 -80.2986 7.21815 19.4659 -2.26649 19.2547 -2.11344 -11.0835 78.0948 -68.8312 48.1016 -18.2401 54.1866 99.8671 -25.4762 18.5398 -0.986731 27.7084 -26.8629 -18.4094 -28.996 55.1257 20.2258 -9.5392 17.5365 -1.54038 -1.31575e-009 1.55994e-007 -4.86485e-009 
2.56224 86.626 32.0022 -2.20508 -1.94546 -131.546 -43.3561 -41.1994 12.1198 30.6236 51.7603 -30.6863 15.4032 -1.46395 0.121023 0.0462048 0.000533403 0.662642 3.34969 6.86946 0.647524 -3.64031 12.7367 8.41762 12.2339 -4.00694 -34.0985 3.18055e-015 -6.36111e-015 6.36111e-015 -91.0632 -17.9509 -47.9017 -52.5541 66.0025 -80.4667 7.21815 19.4659 -2.26649 17.5806 -1.58845 -9.05192 50.3945 -58.0077 33.2606 -13.0633 34.5441 75.0034 -23.9342 18.3952 -0.383767 29.0814 -30.7287 -17.6057 -33.722 57.5435 24.781 -10.094 21.2258 -1.35726 -1.31574e-009 1.55994e-007 -4.86485e-009 
4.45987 84.9441 30.9546 -2.73494 -2.12096 -130.59 -43.5035 -41.6798 11.6174 29.4114 54.323 -27.1337 16.1019 -0.995527 0.257329 0.0462048 0.000533403 0.662642 3.56671 7.05955 1.14795 -3.94649 13.0384 10.0505 12.1314 -4.40446 -34.9685 1.59028e-015 -7.95139e-016 -3.18055e-015 -91.1714 -17.8579 -48.5803 -52.4388 66.0623 -80.7231 7.21815 19.4659 -2.26649 15.4795 -0.990483 -6.40299 31.0402 -47.8999 28.2261 -12.2593 14.4772 51.5311 -22.8088 17.7633 2.83027 30.1102 -34.2076 -16.3769 -38.9881 60.2455 29.5438 -10.8624 24.7772 -0.977149 -1.31574e-009 1.55994e-007 -4.86485e-009 
6.23475 83.2136 30.0045 -3.50623 -2.19678 -130.123 -43.2505 -42.2763 10.81 27.5553 57.0131 -23.1779 16.2557 0.134771 0.311746 0.0462048 0.000533403 0.662642 3.78134 7.38278 1.68316 -4.34069 13.5741 11.7375 11.9616 -5.02507 -35.8262 -3.18055e-015 1.59028e-015 -3.18055e-015 -91.4536 -17.5617 -49.5303 -52.381 66.1613 -80.9375 7.21815 19.4659 -2.26649 12.9624 -0.413772 -3.33614 15.6319 -40.6502 25.8937 -13.5446 -1.4143 29.2634 -23.0522 16.4839 9.06975 30.632 -37.1764 -14.8436 -44.9721 63.2273 34.6729 -11.877 27.474 -0.481212 -1.31575e-009 1.55994e-007 -4.86485e-009 
7.85066 81.5725 29.12 -4.41479 -2.24378 -130.21 -42.7942 -43.0806 9.73744 25.259 59.5469 -19.3312 16.0157 1.90442 0.281106 0.0462048 0.000533403 0.662642 3.97902 7.78888 2.2275 -4.79377 14.2476 13.398 11.7056 -5.8304 -36.5945 1.59028e-015 3.97569e-015 -6.36111e-015 -91.8934 -17.1781 -50.556 -52.6043 66.3667 -80.9473 7.21815 19.4659 -2.26649 10.19 0.0360241 -0.22892 4.3862 -36.7724 23.6647 -14.2276 -10.4146 10.7852 -24.4857 14.5448 17.2084 30.6216 -39.568 -13.1139 -51.9593 66.2753 40.545 -13.0479 28.8924 0.00996072 -1.31574e-009 1.55994e-007 -4.86485e-009 
9.27588 80.1725 28.2543 -5.30599 -2.30988 -130.846 -42.2183 -44.1451 8.53217 22.7465 61.6756 -15.9378 15.5489 4.25776 0.164172 0.0462048 0.000533403 0.662642 4.14247 8.21549 2.72131 -5.23298 14.9508 14.8564 11.3646 -6.74493 -37.1275 1.76556e-031 3.18055e-015 -3.18055e-015 -92.4576 -16.8839 -51.4431 -53.3328 66.7319 -80.5848 7.21815 19.4659 -2.26649 7.47942 0.298668 2.44051 -2.27376 -35.4272 21.2885 -10.0469 -14.8799 1.51047 -26.0719 12.3996 24.8915 30.1872 -41.33 -11.2811 -60.0395 69.026 47.448 -14.1934 28.9459 0.373001 -1.31574e-009 1.55994e-007 -4.86485e-009 
10.478 79.1653 27.3549 -6.01742 -2.40167 -131.972 -41.4604 -45.4173 7.3788 20.2043 63.2094 -13.13 14.9801 7.03238 -0.0348549 0.0462048 0.000533403 0.662642 4.26414 8.60227 3.08074 -5.5476 15.592 15.8687 10.9597 -7.65947 -37.2377 3.18055e-015 -3.97569e-015 3.18055e-015 -93.1017 -16.8676 -52.0094 -54.7301 67.2673 -79.7075 7.21815 19.4659 -2.26649 5.23502 0.394074 4.25001 -4.57271 -35.3 19.8526 -7.20842 -16.6789 -1.32231 -27.4155 10.7268 29.9306 29.4994 -42.3942 -9.4662 -68.6692 71.1249 55.0684 -15.1454 27.8136 0.541806 -1.31574e-009 1.55994e-007 -4.86485e-009 
11.4926 78.541 26.4461 -6.42524 -2.52059 -133.445 -40.5311 -46.9087 6.34296 17.8863 64.2121 -10.9572 14.4183 9.91027 -0.270815 0.0462048 0.000533403 0.662642 4.39521 8.92707 3.26128 -5.65263 16.1458 16.3735 10.5263 -8.44621 -36.7548 1.32417e-031 -7.95139e-016 9.54166e-015 -93.7681 -17.2581 -52.1446 -56.8168 67.9202 -78.2667 7.21815 19.4659 -2.26649 3.82557 0.394789 4.99618 -2.95021 -35.8493 20.0031 -8.53939 -16.8001 0.758882 -28.7659 9.85131 31.5039 28.7705 -42.9162 -7.78914 -77.1199 72.4584 62.8082 -15.8177 25.8491 0.482704 -1.31575e-009 1.55994e-007 -4.86485e-009 
12.3851 78.206 25.5536 -6.47068 -2.64057 -135.099 -39.443 -48.6252 5.34993 15.9265 64.9459 -9.27393 13.873 12.4036 -0.464476 0.0462048 0.000533403 0.662642 4.59677 9.19308 3.25056 -5.49116 16.6242 16.4017 10.1054 -8.98427 -35.595 6.36111e-015 2.38542e-015 -0 -94.3797 -18.0563 -51.8285 -59.3646 68.5737 -76.3984 7.21815 19.4659 -2.26649 3.51135 0.365662 4.71762 2.74516 -37.757 21.4003 -10.532 -13.8542 9.58002 -30.083 9.80118 30.1194 28.178 -43.077 -6.37737 -84.4981 73.1103 69.7562 -16.2811 23.4701 0.240237 -1.31575e-009 1.55994e-007 -4.86485e-009 
13.1534 78.1854 24.6908 -6.15196 -2.68792 -136.778 -38.1089 -50.3155 4.32243 14.1349 65.4685 -7.64151 13.2872 14.0271 -0.565298 0.0462048 0.000533403 0.662642 4.88659 9.39505 3.0231 -5.02652 17.0264 15.9149 9.73722 -9.18861 -33.8127 3.18055e-015 0 -1.59028e-014 -94.8443 -19.1072 -51.1312 -61.8346 69.0796 -74.5006 7.21815 19.4659 -2.26649 4.39444 0.32434 3.62366 13.7105 -42.5493 23.3233 -7.47437 -4.19922 27.4663 -31.0011 10.3926 27.1052 27.7244 -42.8525 -5.36327 -89.4788 73.286 74.528 -16.6421 21.1229 -0.0619124 -1.31575e-009 1.55994e-007 -4.86485e-009 
13.8264 78.4436 23.8557 -5.51391 -2.60108 -138.34 -36.5086 -51.8024 3.14239 12.3585 65.93 -5.70427 12.6194 14.3568 -0.531206 0.0462048 0.000533403 0.662642 5.2745 9.5419 2.60727 -4.28902 17.3592 14.9874 9.46082 -9.0326 -31.6004 6.36111e-015 3.18055e-015 -0 -95.0784 -20.1476 -50.1989 -63.5046 69.3124 -73.1453 7.21815 19.4659 -2.26649 6.36328 0.241806 2.00784 30.7131 -51.1374 25.5468 -3.14042 16.6011 48.5237 -31.4153 11.2161 23.9072 27.3942 -42.2484 -4.80428 -91.3975 73.2707 76.3507 -17.0204 19.2184 -0.30997 -1.31574e-009 1.55994e-007 -4.86485e-009 
